<svg width="15" height="20" viewBox="0 0 15 20" fill="none" xmlns="http://www.w3.org/2000/svg">
<path d="M7.17676 4.5C7.8398 4.5 8.47568 4.76339 8.94452 5.23223C9.41337 5.70107 9.67676 6.33696 9.67676 7C9.67676 7.3283 9.61209 7.65339 9.48646 7.95671C9.36082 8.26002 9.17667 8.53562 8.94452 8.76777C8.71238 8.99991 8.43678 9.18406 8.13347 9.3097C7.83015 9.43534 7.50506 9.5 7.17676 9.5C6.51372 9.5 5.87783 9.23661 5.40899 8.76777C4.94015 8.29893 4.67676 7.66304 4.67676 7C4.67676 6.33696 4.94015 5.70107 5.40899 5.23223C5.87783 4.76339 6.51372 4.5 7.17676 4.5ZM7.17676 0C9.03327 0 10.8138 0.737498 12.1265 2.05025C13.4393 3.36301 14.1768 5.14348 14.1768 7C14.1768 12.25 7.17676 20 7.17676 20C7.17676 20 0.176758 12.25 0.176758 7C0.176758 5.14348 0.914256 3.36301 2.22701 2.05025C3.53976 0.737498 5.32024 0 7.17676 0ZM7.17676 2C5.85068 2 4.57891 2.52678 3.64122 3.46447C2.70354 4.40215 2.17676 5.67392 2.17676 7C2.17676 8 2.17676 10 7.17676 16.71C12.1768 10 12.1768 8 12.1768 7C12.1768 5.67392 11.65 4.40215 10.7123 3.46447C9.77461 2.52678 8.50284 2 7.17676 2Z" fill="black"/>
</svg>
