<svg width="21" height="16" viewBox="0 0 21 16" fill="none" xmlns="http://www.w3.org/2000/svg">
<path d="M1.35433 15.4869H19.3543C19.5366 15.4864 19.7152 15.4361 19.871 15.3415C20.0268 15.247 20.1539 15.1118 20.2385 14.9504C20.3232 14.789 20.3622 14.6076 20.3514 14.4256C20.3407 14.2437 20.2805 14.0682 20.1773 13.9179L11.1773 0.917922C10.8043 0.378922 9.90633 0.378922 9.53233 0.917922L0.532333 13.9179C0.428158 14.0679 0.367068 14.2435 0.355699 14.4257C0.34433 14.6079 0.383117 14.7898 0.467847 14.9515C0.552578 15.1133 0.680009 15.2487 0.836298 15.3431C0.992586 15.4375 1.17175 15.4872 1.35433 15.4869ZM10.3543 3.24392L17.4463 13.4869H3.26233L10.3543 3.24392Z" fill="black"/>
</svg>
