<svg width="20" height="18" viewBox="0 0 20 18" fill="none" xmlns="http://www.w3.org/2000/svg">
<path d="M13.3535 10.5C13.7869 10.5 14.1452 10.3583 14.4285 10.075C14.7119 9.79167 14.8535 9.43334 14.8535 9C14.8535 8.56667 14.7119 8.20834 14.4285 7.925C14.1452 7.64167 13.7869 7.5 13.3535 7.5C12.9202 7.5 12.5619 7.64167 12.2785 7.925C11.9952 8.20834 11.8535 8.56667 11.8535 9C11.8535 9.43334 11.9952 9.79167 12.2785 10.075C12.5619 10.3583 12.9202 10.5 13.3535 10.5ZM2.35352 18C1.80352 18 1.33252 17.804 0.940517 17.412C0.548517 17.02 0.352851 16.5493 0.353517 16V2C0.353517 1.45 0.549517 0.979002 0.941517 0.587002C1.33352 0.195002 1.80418 -0.000664969 2.35352 1.69779e-06H16.3535C16.9035 1.69779e-06 17.3745 0.196002 17.7665 0.588002C18.1585 0.980002 18.3542 1.45067 18.3535 2V4.5H16.3535V2H2.35352V16H16.3535V13.5H18.3535V16C18.3535 16.55 18.1575 17.021 17.7655 17.413C17.3735 17.805 16.9029 18.0007 16.3535 18H2.35352ZM10.3535 14C9.80352 14 9.33252 13.804 8.94052 13.412C8.54852 13.02 8.35285 12.5493 8.35352 12V6C8.35352 5.45 8.54952 4.979 8.94152 4.587C9.33352 4.195 9.80418 3.99934 10.3535 4H17.3535C17.9035 4 18.3745 4.196 18.7665 4.588C19.1585 4.98 19.3542 5.45067 19.3535 6V12C19.3535 12.55 19.1575 13.021 18.7655 13.413C18.3735 13.805 17.9029 14.0007 17.3535 14H10.3535ZM17.3535 12V6H10.3535V12H17.3535Z" fill="black"/>
</svg>
