<?xml version="1.0" standalone="no"?>
<svg id="zebramini" width="40" height="40" viewBox="0 0 40 40" fill="none" xmlns="http://www.w3.org/2000/svg" style="max-width: 100%; max-height: 100%;">
<path d="M5 20C5 28.2843 11.7157 35 20 35C28.2843 35 35 28.2843 35 20C35 11.7157 28.2843 5 20 5C11.7157 5 5 11.7157 5 20Z" stroke="#1C0423" stroke-width="3" stroke-dasharray="0,0,0,0,0,94.26109313964844"><animate attributeType="XML" attributeName="stroke-dasharray" repeatCount="indefinite" dur="2.2023721711939297s" values="0,0,0,0,0,94.26109313964844; 0,0,0,50.7757075171366,43.485385622511835,0; 0,0,21.742692811255917,72.51840032839253,0,0; 0,47.13054656982422,0,47.13054656982422,0,0" keyTimes="0; 0.5; 0.7306645519063095; 1" begin="0.2845107174993943s"></animate></path>
<path d="M5 20C5 28.2843 11.7157 35 20 35C28.2843 35 35 28.2843 35 20C35 11.7157 28.2843 5 20 5C11.7157 5 5 11.7157 5 20Z" stroke="#FFCF40" stroke-width="3" stroke-dasharray="0,0,0,0,0,94.26109313964844"><animate attributeType="XML" attributeName="stroke-dasharray" repeatCount="indefinite" dur="2.169959450787813s" values="0,0,0,0,0,94.26109313964844; 0,0,0,47.652103464094324,46.60898967555411,0; 0,0,23.304494837777057,70.95659830187138,0,0; 0,47.13054656982422,0,47.13054656982422,0,0" keyTimes="0; 0.5; 0.7472334455452505; 1" begin="0.02312654118275059s"></animate></path>
<path d="M5 20C5 28.2843 11.7157 35 20 35C28.2843 35 35 28.2843 35 20C35 11.7157 28.2843 5 20 5C11.7157 5 5 11.7157 5 20Z" stroke="#23082C" stroke-width="3" stroke-dasharray="0,0,0,0,0,94.26109313964844"><animate attributeType="XML" attributeName="stroke-dasharray" repeatCount="indefinite" dur="2.1655394668561634s" values="0,0,0,0,0,94.26109313964844; 0,0,0,51.91138210759376,42.349711032054685,0; 0,0,21.174855516027343,73.0862376236211,0,0; 0,47.13054656982422,0,47.13054656982422,0,0" keyTimes="0; 0.5; 0.7246404620478637; 1" begin="0.8682438723540838s"></animate></path>
<path d="M5 20C5 28.2843 11.7157 35 20 35C28.2843 35 35 28.2843 35 20C35 11.7157 28.2843 5 20 5C11.7157 5 5 11.7157 5 20Z" stroke="#F16BFF" stroke-width="3" stroke-dasharray="0,0,0,0,0,94.26109313964844"><animate attributeType="XML" attributeName="stroke-dasharray" repeatCount="indefinite" dur="2.278532895578475s" values="0,0,0,0,0,94.26109313964844; 0,0,0,53.776367585904175,40.484725553744255,0; 0,0,20.242362776872127,74.01873036277631,0,0; 0,47.13054656982422,0,47.13054656982422,0,0" keyTimes="0; 0.5; 0.7147478042386262; 1" begin="0.3088236441958795s"></animate></path>
<path d="M5 20C5 28.2843 11.7157 35 20 35C28.2843 35 35 28.2843 35 20C35 11.7157 28.2843 5 20 5C11.7157 5 5 11.7157 5 20Z" stroke="#70FFDB" stroke-width="3" stroke-dasharray="0,0,0,0,0,94.26109313964844"><animate attributeType="XML" attributeName="stroke-dasharray" repeatCount="indefinite" dur="2.01620857838712s" values="0,0,0,0,0,94.26109313964844; 0,0,0,48.457672150616276,45.80342098903217,0; 0,0,22.901710494516085,71.35938264513236,0,0; 0,47.13054656982422,0,47.13054656982422,0,0" keyTimes="0; 0.5; 0.7429603745480338; 1" begin="0.440146587496812s"></animate></path>
<setting>{"type":"shift","speed":20,"random":0.8,"shift":0.5,"size":0.8,"rupture":50}</setting></svg>